<svg id="my-svg" width="100%" xmlns="http://www.w3.org/2000/svg" xmlns:xlink="http://www.w3.org/1999/xlink" class="flowchart" style="max-width: 1627.38px; background-color: white;" viewBox="0 0 1627.37890625 1066" role="graphics-document document" aria-roledescription="flowchart-v2"><style>#my-svg{font-family:"trebuchet ms",verdana,arial,sans-serif;font-size:16px;fill:#333;}@keyframes edge-animation-frame{from{stroke-dashoffset:0;}}@keyframes dash{to{stroke-dashoffset:0;}}#my-svg .edge-animation-slow{stroke-dasharray:9,5!important;stroke-dashoffset:900;animation:dash 50s linear infinite;stroke-linecap:round;}#my-svg .edge-animation-fast{stroke-dasharray:9,5!important;stroke-dashoffset:900;animation:dash 20s linear infinite;stroke-linecap:round;}#my-svg .error-icon{fill:#552222;}#my-svg .error-text{fill:#552222;stroke:#552222;}#my-svg .edge-thickness-normal{stroke-width:1px;}#my-svg .edge-thickness-thick{stroke-width:3.5px;}#my-svg .edge-pattern-solid{stroke-dasharray:0;}#my-svg .edge-thickness-invisible{stroke-width:0;fill:none;}#my-svg .edge-pattern-dashed{stroke-dasharray:3;}#my-svg .edge-pattern-dotted{stroke-dasharray:2;}#my-svg .marker{fill:#333333;stroke:#333333;}#my-svg .marker.cross{stroke:#333333;}#my-svg svg{font-family:"trebuchet ms",verdana,arial,sans-serif;font-size:16px;}#my-svg p{margin:0;}#my-svg .label{font-family:"trebuchet ms",verdana,arial,sans-serif;color:#333;}#my-svg .cluster-label text{fill:#333;}#my-svg .cluster-label span{color:#333;}#my-svg .cluster-label span p{background-color:transparent;}#my-svg .label text,#my-svg span{fill:#333;color:#333;}#my-svg .node rect,#my-svg .node circle,#my-svg .node ellipse,#my-svg .node polygon,#my-svg .node path{fill:#ECECFF;stroke:#9370DB;stroke-width:1px;}#my-svg .rough-node .label text,#my-svg .node .label text,#my-svg .image-shape .label,#my-svg .icon-shape .label{text-anchor:middle;}#my-svg .node .katex path{fill:#000;stroke:#000;stroke-width:1px;}#my-svg .rough-node .label,#my-svg .node .label,#my-svg .image-shape .label,#my-svg .icon-shape .label{text-align:center;}#my-svg .node.clickable{cursor:pointer;}#my-svg .root .anchor path{fill:#333333!important;stroke-width:0;stroke:#333333;}#my-svg .arrowheadPath{fill:#333333;}#my-svg .edgePath .path{stroke:#333333;stroke-width:2.0px;}#my-svg .flowchart-link{stroke:#333333;fill:none;}#my-svg .edgeLabel{background-color:rgba(232,232,232, 0.8);text-align:center;}#my-svg .edgeLabel p{background-color:rgba(232,232,232, 0.8);}#my-svg .edgeLabel rect{opacity:0.5;background-color:rgba(232,232,232, 0.8);fill:rgba(232,232,232, 0.8);}#my-svg .labelBkg{background-color:rgba(232, 232, 232, 0.5);}#my-svg .cluster rect{fill:#ffffde;stroke:#aaaa33;stroke-width:1px;}#my-svg .cluster text{fill:#333;}#my-svg .cluster span{color:#333;}#my-svg div.mermaidTooltip{position:absolute;text-align:center;max-width:200px;padding:2px;font-family:"trebuchet ms",verdana,arial,sans-serif;font-size:12px;background:hsl(80, 100%, 96.2745098039%);border:1px solid #aaaa33;border-radius:2px;pointer-events:none;z-index:100;}#my-svg .flowchartTitleText{text-anchor:middle;font-size:18px;fill:#333;}#my-svg rect.text{fill:none;stroke-width:0;}#my-svg .icon-shape,#my-svg .image-shape{background-color:rgba(232,232,232, 0.8);text-align:center;}#my-svg .icon-shape p,#my-svg .image-shape p{background-color:rgba(232,232,232, 0.8);padding:2px;}#my-svg .icon-shape .label rect,#my-svg .image-shape .label rect{opacity:0.5;background-color:rgba(232,232,232, 0.8);fill:rgba(232,232,232, 0.8);}#my-svg .label-icon{display:inline-block;height:1em;overflow:visible;vertical-align:-0.125em;}#my-svg .node .label-icon path{fill:currentColor;stroke:revert;stroke-width:revert;}#my-svg :root{--mermaid-font-family:"trebuchet ms",verdana,arial,sans-serif;}</style><g><marker id="my-svg_flowchart-v2-pointEnd" class="marker flowchart-v2" viewBox="0 0 10 10" refX="5" refY="5" markerUnits="userSpaceOnUse" markerWidth="8" markerHeight="8" orient="auto"><path d="M 0 0 L 10 5 L 0 10 z" class="arrowMarkerPath" style="stroke-width: 1; stroke-dasharray: 1, 0;"/></marker><marker id="my-svg_flowchart-v2-pointStart" class="marker flowchart-v2" viewBox="0 0 10 10" refX="4.5" refY="5" markerUnits="userSpaceOnUse" markerWidth="8" markerHeight="8" orient="auto"><path d="M 0 5 L 10 10 L 10 0 z" class="arrowMarkerPath" style="stroke-width: 1; stroke-dasharray: 1, 0;"/></marker><marker id="my-svg_flowchart-v2-circleEnd" class="marker flowchart-v2" viewBox="0 0 10 10" refX="11" refY="5" markerUnits="userSpaceOnUse" markerWidth="11" markerHeight="11" orient="auto"><circle cx="5" cy="5" r="5" class="arrowMarkerPath" style="stroke-width: 1; stroke-dasharray: 1, 0;"/></marker><marker id="my-svg_flowchart-v2-circleStart" class="marker flowchart-v2" viewBox="0 0 10 10" refX="-1" refY="5" markerUnits="userSpaceOnUse" markerWidth="11" markerHeight="11" orient="auto"><circle cx="5" cy="5" r="5" class="arrowMarkerPath" style="stroke-width: 1; stroke-dasharray: 1, 0;"/></marker><marker id="my-svg_flowchart-v2-crossEnd" class="marker cross flowchart-v2" viewBox="0 0 11 11" refX="12" refY="5.2" markerUnits="userSpaceOnUse" markerWidth="11" markerHeight="11" orient="auto"><path d="M 1,1 l 9,9 M 10,1 l -9,9" class="arrowMarkerPath" style="stroke-width: 2; stroke-dasharray: 1, 0;"/></marker><marker id="my-svg_flowchart-v2-crossStart" class="marker cross flowchart-v2" viewBox="0 0 11 11" refX="-1" refY="5.2" markerUnits="userSpaceOnUse" markerWidth="11" markerHeight="11" orient="auto"><path d="M 1,1 l 9,9 M 10,1 l -9,9" class="arrowMarkerPath" style="stroke-width: 2; stroke-dasharray: 1, 0;"/></marker><g class="root"><g class="clusters"><g class="cluster" id="conditionalBranch" data-look="classic"><rect style="" x="8" y="289" width="504" height="128"/><g class="cluster-label" transform="translate(204, 289)"><foreignObject width="112" height="24"><div xmlns="http://www.w3.org/1999/xhtml" style="display: table-cell; white-space: nowrap; line-height: 1.5;"><span class="nodeLabel"><p>有条件录取分支</p></span></div></foreignObject></g></g><g class="cluster" id="operation" data-look="classic"><rect style="" x="532" y="136" width="642.19921875" height="818"/><g class="cluster-label" transform="translate(821.099609375, 136)"><foreignObject width="64" height="24"><div xmlns="http://www.w3.org/1999/xhtml" style="display: table-cell; white-space: nowrap; line-height: 1.5;"><span class="nodeLabel"><p>操作分支</p></span></div></foreignObject></g></g></g><g class="edgePaths"><path d="M832.804,227L825.985,233.167C819.166,239.333,805.529,251.667,798.71,262C791.891,272.333,791.891,280.667,688.406,294.475C584.921,308.284,377.952,327.568,274.467,337.21L170.983,346.852" id="L_CD_CDT_0" class="edge-thickness-normal edge-pattern-solid edge-thickness-normal edge-pattern-solid flowchart-link" style=";" data-edge="true" data-et="edge" data-id="L_CD_CDT_0" data-points="W3sieCI6ODMyLjgwNDI2MDI1MzkwNjIsInkiOjIyN30seyJ4Ijo3OTEuODkwNjI1LCJ5IjoyNjR9LHsieCI6NzkxLjg5MDYyNSwieSI6Mjg5fSx7IngiOjE2NywieSI6MzQ3LjIyMzI0MzMyOTMxNDY0fV0=" marker-end="url(#my-svg_flowchart-v2-pointEnd)"/><path d="M892.516,227L899.335,233.167C906.154,239.333,919.792,251.667,926.611,262C933.43,272.333,933.43,280.667,858.021,293.063C782.612,305.459,631.794,321.919,556.385,330.149L480.976,338.378" id="L_CD_CDF_0" class="edge-thickness-normal edge-pattern-solid edge-thickness-normal edge-pattern-solid flowchart-link" style=";" data-edge="true" data-et="edge" data-id="L_CD_CDF_0" data-points="W3sieCI6ODkyLjUxNjA1MjI0NjA5MzgsInkiOjIyN30seyJ4Ijo5MzMuNDI5Njg3NSwieSI6MjY0fSx7IngiOjkzMy40Mjk2ODc1LCJ5IjoyODl9LHsieCI6NDc3LCJ5IjozMzguODEyNDUwODc0NTk4NjV9XQ==" marker-end="url(#my-svg_flowchart-v2-pointEnd)"/><path d="M105,380L105,386.167C105,392.333,105,404.667,189.608,415C274.216,425.333,443.432,433.667,533.773,441.632C624.113,449.597,635.577,457.194,641.309,460.992L647.041,464.79" id="L_CDT_AD_0" class="edge-thickness-normal edge-pattern-solid edge-thickness-normal edge-pattern-solid flowchart-link" style=";" data-edge="true" data-et="edge" data-id="L_CDT_AD_0" data-points="W3sieCI6MTA1LCJ5IjozODB9LHsieCI6MTA1LCJ5Ijo0MTd9LHsieCI6NjEyLjY0ODQzNzUsInkiOjQ0Mn0seyJ4Ijo2NTAuMzc1Njc2MDgxNzMwNywieSI6NDY3fV0=" marker-end="url(#my-svg_flowchart-v2-pointEnd)"/><path d="M933.762,53.388L894.988,60.99C856.215,68.592,778.668,83.796,739.895,97.565C701.121,111.333,701.121,123.667,701.121,140.5C701.121,157.333,701.121,178.667,701.121,200C701.121,221.333,701.121,242.667,701.121,257.5C701.121,272.333,701.121,280.667,701.121,295.5C701.121,310.333,701.121,331.667,701.121,353C701.121,374.333,701.121,395.667,701.121,410.5C701.121,425.333,701.121,433.667,700.446,441.345C699.77,449.024,698.42,456.048,697.744,459.56L697.069,463.072" id="L_P_AD_0" class="edge-thickness-normal edge-pattern-solid edge-thickness-normal edge-pattern-solid flowchart-link" style=";" data-edge="true" data-et="edge" data-id="L_P_AD_0" data-points="W3sieCI6OTMzLjc2MTcxODc1LCJ5Ijo1My4zODgzMzk3NTU0MDI5MX0seyJ4Ijo3MDEuMTIxMDkzNzUsInkiOjk5fSx7IngiOjcwMS4xMjEwOTM3NSwieSI6MTM2fSx7IngiOjcwMS4xMjEwOTM3NSwieSI6MjAwfSx7IngiOjcwMS4xMjEwOTM3NSwieSI6MjY0fSx7IngiOjcwMS4xMjEwOTM3NSwieSI6Mjg5fSx7IngiOjcwMS4xMjEwOTM3NSwieSI6MzUzfSx7IngiOjcwMS4xMjEwOTM3NSwieSI6NDE3fSx7IngiOjcwMS4xMjEwOTM3NSwieSI6NDQyfSx7IngiOjY5Ni4zMTM0MDE0NDIzMDc3LCJ5Ijo0Njd9XQ==" marker-end="url(#my-svg_flowchart-v2-pointEnd)"/><path d="M957.988,62L942.1,68.167C926.212,74.333,894.436,86.667,878.548,99C862.66,111.333,862.66,123.667,862.66,135.333C862.66,147,862.66,158,862.66,163.5L862.66,169" id="L_P_CD_0" class="edge-thickness-normal edge-pattern-solid edge-thickness-normal edge-pattern-solid flowchart-link" style=";" data-edge="true" data-et="edge" data-id="L_P_CD_0" data-points="W3sieCI6OTU3Ljk4NzU0ODgyODEyNSwieSI6NjJ9LHsieCI6ODYyLjY2MDE1NjI1LCJ5Ijo5OX0seyJ4Ijo4NjIuNjYwMTU2MjUsInkiOjEzNn0seyJ4Ijo4NjIuNjYwMTU2MjUsInkiOjE3M31d" marker-end="url(#my-svg_flowchart-v2-pointEnd)"/><path d="M1026.137,62L1025.814,68.167C1025.491,74.333,1024.845,86.667,1024.522,99C1024.199,111.333,1024.199,123.667,1024.199,140.5C1024.199,157.333,1024.199,178.667,1024.199,200C1024.199,221.333,1024.199,242.667,1024.199,257.5C1024.199,272.333,1024.199,280.667,1024.199,295.5C1024.199,310.333,1024.199,331.667,1024.199,353C1024.199,374.333,1024.199,395.667,1024.199,410.5C1024.199,425.333,1024.199,433.667,1024.199,446.5C1024.199,459.333,1024.199,476.667,1024.199,496C1024.199,515.333,1024.199,536.667,1024.199,558C1024.199,579.333,1024.199,600.667,1024.199,622C1024.199,643.333,1024.199,664.667,1024.199,688C1024.199,711.333,1024.199,736.667,1024.199,762C1024.199,787.333,1024.199,812.667,999.911,831.823C975.623,850.979,927.046,863.957,902.758,870.447L878.47,876.936" id="L_P_RJ_0" class="edge-thickness-normal edge-pattern-solid edge-thickness-normal edge-pattern-solid flowchart-link" style=";" data-edge="true" data-et="edge" data-id="L_P_RJ_0" data-points="W3sieCI6MTAyNi4xMzY4NDA4MjAzMTI1LCJ5Ijo2Mn0seyJ4IjoxMDI0LjE5OTIxODc1LCJ5Ijo5OX0seyJ4IjoxMDI0LjE5OTIxODc1LCJ5IjoxMzZ9LHsieCI6MTAyNC4xOTkyMTg3NSwieSI6MjAwfSx7IngiOjEwMjQuMTk5MjE4NzUsInkiOjI2NH0seyJ4IjoxMDI0LjE5OTIxODc1LCJ5IjoyODl9LHsieCI6MTAyNC4xOTkyMTg3NSwieSI6MzUzfSx7IngiOjEwMjQuMTk5MjE4NzUsInkiOjQxN30seyJ4IjoxMDI0LjE5OTIxODc1LCJ5Ijo0NDJ9LHsieCI6MTAyNC4xOTkyMTg3NSwieSI6NDk0fSx7IngiOjEwMjQuMTk5MjE4NzUsInkiOjU1OH0seyJ4IjoxMDI0LjE5OTIxODc1LCJ5Ijo2MjJ9LHsieCI6MTAyNC4xOTkyMTg3NSwieSI6Njg2fSx7IngiOjEwMjQuMTk5MjE4NzUsInkiOjc2Mn0seyJ4IjoxMDI0LjE5OTIxODc1LCJ5Ijo4Mzh9LHsieCI6ODc0LjYwNTQ2ODc1LCJ5Ijo4NzcuOTY4NDI4OTQ4ODI3NX1d" marker-end="url(#my-svg_flowchart-v2-pointEnd)"/><path d="M664.765,521L658.746,527.167C652.726,533.333,640.687,545.667,608.96,558.122C577.233,570.576,525.817,583.153,500.109,589.441L474.401,595.729" id="L_AD_CF_0" class="edge-thickness-normal edge-pattern-solid edge-thickness-normal edge-pattern-solid flowchart-link" style=";" data-edge="true" data-et="edge" data-id="L_AD_CF_0" data-points="W3sieCI6NjY0Ljc2NTQ0MTg5NDUzMTIsInkiOjUyMX0seyJ4Ijo2MjguNjQ4NDM3NSwieSI6NTU4fSx7IngiOjQ3MC41MTU2MjUsInkiOjU5Ni42Nzk3NjQ3MTI5MDh9XQ==" marker-end="url(#my-svg_flowchart-v2-pointEnd)"/><path d="M367,649L367,655.167C367,661.333,367,673.667,367,685.333C367,697,367,708,367,713.5L367,719" id="L_CF_MR_0" class="edge-thickness-normal edge-pattern-solid edge-thickness-normal edge-pattern-solid flowchart-link" style=";" data-edge="true" data-et="edge" data-id="L_CF_MR_0" data-points="W3sieCI6MzY3LCJ5Ijo2NDl9LHsieCI6MzY3LCJ5Ijo2ODZ9LHsieCI6MzY3LCJ5Ijo3MjN9XQ==" marker-end="url(#my-svg_flowchart-v2-pointEnd)"/><path d="M367,801L367,807.167C367,813.333,367,825.667,367,837.333C367,849,367,860,367,865.5L367,871" id="L_MR_CK_0" class="edge-thickness-normal edge-pattern-solid edge-thickness-normal edge-pattern-solid flowchart-link" style=";" data-edge="true" data-et="edge" data-id="L_MR_CK_0" data-points="W3sieCI6MzY3LCJ5Ijo4MDF9LHsieCI6MzY3LCJ5Ijo4Mzh9LHsieCI6MzY3LCJ5Ijo4NzV9XQ==" marker-end="url(#my-svg_flowchart-v2-pointEnd)"/><path d="M367,929L367,933.167C367,937.333,367,945.667,367,954C367,962.333,367,970.667,367,978.333C367,986,367,993,367,996.5L367,1000" id="L_CK_END1_0" class="edge-thickness-normal edge-pattern-solid edge-thickness-normal edge-pattern-solid flowchart-link" style=";" data-edge="true" data-et="edge" data-id="L_CK_END1_0" data-points="W3sieCI6MzY3LCJ5Ijo5Mjl9LHsieCI6MzY3LCJ5Ijo5NTR9LHsieCI6MzY3LCJ5Ijo5Nzl9LHsieCI6MzY3LCJ5IjoxMDA0fV0=" marker-end="url(#my-svg_flowchart-v2-pointEnd)"/><path d="M874.605,884.532L914.538,876.776C954.47,869.021,1034.335,853.511,1074.267,833.089C1114.199,812.667,1114.199,787.333,1114.199,762C1114.199,736.667,1114.199,711.333,1114.199,688C1114.199,664.667,1114.199,643.333,1114.199,622C1114.199,600.667,1114.199,579.333,1114.199,558C1114.199,536.667,1114.199,515.333,1114.199,496C1114.199,476.667,1114.199,459.333,1114.199,446.5C1114.199,433.667,1114.199,425.333,1114.199,410.5C1114.199,395.667,1114.199,374.333,1114.199,353C1114.199,331.667,1114.199,310.333,1114.199,295.5C1114.199,280.667,1114.199,272.333,1114.199,257.5C1114.199,242.667,1114.199,221.333,1114.199,200C1114.199,178.667,1114.199,157.333,1137.949,140.5C1161.699,123.667,1209.199,111.333,1211.031,99.045C1212.864,86.757,1169.028,74.514,1147.11,68.392L1125.192,62.271" id="L_RJ_P_0" class="edge-thickness-normal edge-pattern-solid edge-thickness-normal edge-pattern-solid flowchart-link" style=";" data-edge="true" data-et="edge" data-id="L_RJ_P_0" data-points="W3sieCI6ODc0LjYwNTQ2ODc1LCJ5Ijo4ODQuNTMxNjYxMTc0NDYyNH0seyJ4IjoxMTE0LjE5OTIxODc1LCJ5Ijo4Mzh9LHsieCI6MTExNC4xOTkyMTg3NSwieSI6NzYyfSx7IngiOjExMTQuMTk5MjE4NzUsInkiOjY4Nn0seyJ4IjoxMTE0LjE5OTIxODc1LCJ5Ijo2MjJ9LHsieCI6MTExNC4xOTkyMTg3NSwieSI6NTU4fSx7IngiOjExMTQuMTk5MjE4NzUsInkiOjQ5NH0seyJ4IjoxMTE0LjE5OTIxODc1LCJ5Ijo0NDJ9LHsieCI6MTExNC4xOTkyMTg3NSwieSI6NDE3fSx7IngiOjExMTQuMTk5MjE4NzUsInkiOjM1M30seyJ4IjoxMTE0LjE5OTIxODc1LCJ5IjoyODl9LHsieCI6MTExNC4xOTkyMTg3NSwieSI6MjY0fSx7IngiOjExMTQuMTk5MjE4NzUsInkiOjIwMH0seyJ4IjoxMTE0LjE5OTIxODc1LCJ5IjoxMzZ9LHsieCI6MTI1Ni42OTkyMTg3NSwieSI6OTl9LHsieCI6MTEyMS4zMzk4NDM3NSwieSI6NjEuMTk0ODEwOTUwODcxMDl9XQ==" marker-end="url(#my-svg_flowchart-v2-pointEnd)"/><path d="M695.266,521L696.212,527.167C697.159,533.333,699.052,545.667,699.999,562.5C700.945,579.333,700.945,600.667,700.945,622C700.945,643.333,700.945,664.667,700.945,688C700.945,711.333,700.945,736.667,700.945,762C700.945,787.333,700.945,812.667,708.482,831.095C716.019,849.524,731.092,861.047,738.629,866.809L746.165,872.571" id="L_AD_RJ_0" class="edge-thickness-normal edge-pattern-solid edge-thickness-normal edge-pattern-solid flowchart-link" style=";" data-edge="true" data-et="edge" data-id="L_AD_RJ_0" data-points="W3sieCI6Njk1LjI2NTY4NjAzNTE1NjIsInkiOjUyMX0seyJ4Ijo3MDAuOTQ1MzEyNSwieSI6NTU4fSx7IngiOjcwMC45NDUzMTI1LCJ5Ijo2MjJ9LHsieCI6NzAwLjk0NTMxMjUsInkiOjY4Nn0seyJ4Ijo3MDAuOTQ1MzEyNSwieSI6NzYyfSx7IngiOjcwMC45NDUzMTI1LCJ5Ijo4Mzh9LHsieCI6NzQ5LjM0Mjk1NjU0Mjk2ODgsInkiOjg3NX1d" marker-end="url(#my-svg_flowchart-v2-pointEnd)"/><path d="M752.52,521L766.544,527.167C780.567,533.333,808.614,545.667,914.033,560.596C1019.453,575.525,1202.245,593.05,1293.642,601.813L1385.038,610.575" id="L_AD_INV_0" class="edge-thickness-normal edge-pattern-solid edge-thickness-normal edge-pattern-solid flowchart-link" style=";" data-edge="true" data-et="edge" data-id="L_AD_INV_0" data-points="W3sieCI6NzUyLjUyMDM4NTc0MjE4NzUsInkiOjUyMX0seyJ4Ijo4MzYuNjYwMTU2MjUsInkiOjU1OH0seyJ4IjoxMzg5LjAxOTUzMTI1LCJ5Ijo2MTAuOTU3MjAwNTM4MzU4fV0=" marker-end="url(#my-svg_flowchart-v2-pointEnd)"/><path d="M1504.199,595L1504.199,588.833C1504.199,582.667,1504.199,570.333,1504.199,553.5C1504.199,536.667,1504.199,515.333,1504.199,496C1504.199,476.667,1504.199,459.333,1504.199,446.5C1504.199,433.667,1504.199,425.333,1504.199,410.5C1504.199,395.667,1504.199,374.333,1504.199,353C1504.199,331.667,1504.199,310.333,1504.199,295.5C1504.199,280.667,1504.199,272.333,1504.199,257.5C1504.199,242.667,1504.199,221.333,1504.199,200C1504.199,178.667,1504.199,157.333,1504.199,140.5C1504.199,123.667,1504.199,111.333,1441.05,96.688C1377.901,82.042,1251.603,65.084,1188.453,56.605L1125.304,48.125" id="L_INV_P_0" class="edge-thickness-normal edge-pattern-solid edge-thickness-normal edge-pattern-solid flowchart-link" style=";" data-edge="true" data-et="edge" data-id="L_INV_P_0" data-points="W3sieCI6MTUwNC4xOTkyMTg3NSwieSI6NTk1fSx7IngiOjE1MDQuMTk5MjE4NzUsInkiOjU1OH0seyJ4IjoxNTA0LjE5OTIxODc1LCJ5Ijo0OTR9LHsieCI6MTUwNC4xOTkyMTg3NSwieSI6NDQyfSx7IngiOjE1MDQuMTk5MjE4NzUsInkiOjQxN30seyJ4IjoxNTA0LjE5OTIxODc1LCJ5IjozNTN9LHsieCI6MTUwNC4xOTkyMTg3NSwieSI6Mjg5fSx7IngiOjE1MDQuMTk5MjE4NzUsInkiOjI2NH0seyJ4IjoxNTA0LjE5OTIxODc1LCJ5IjoyMDB9LHsieCI6MTUwNC4xOTkyMTg3NSwieSI6MTM2fSx7IngiOjE1MDQuMTk5MjE4NzUsInkiOjk5fSx7IngiOjExMjEuMzM5ODQzNzUsInkiOjQ3LjU5MzEzODk0MjE1Nzk3fV0=" marker-end="url(#my-svg_flowchart-v2-pointEnd)"/><path d="M492.966,801L512.884,807.167C532.802,813.333,572.637,825.667,608.521,837.768C644.405,849.869,676.337,861.738,692.303,867.672L708.269,873.606" id="L_MR_RJ_0" class="edge-thickness-normal edge-pattern-solid edge-thickness-normal edge-pattern-solid flowchart-link" style=";" data-edge="true" data-et="edge" data-id="L_MR_RJ_0" data-points="W3sieCI6NDkyLjk2NjIzMTQ5NjcxMDUsInkiOjgwMX0seyJ4Ijo2MTIuNDcyNjU2MjUsInkiOjgzOH0seyJ4Ijo3MTIuMDE4NTU0Njg3NSwieSI6ODc1fV0=" marker-end="url(#my-svg_flowchart-v2-pointEnd)"/><path d="M470.516,645.537L500.175,652.281C529.835,659.025,589.154,672.512,618.813,691.923C648.473,711.333,648.473,736.667,648.473,762C648.473,787.333,648.473,812.667,660.992,831.216C673.51,849.766,698.548,861.532,711.067,867.416L723.586,873.299" id="L_CF_RJ_0" class="edge-thickness-normal edge-pattern-solid edge-thickness-normal edge-pattern-solid flowchart-link" style=";" data-edge="true" data-et="edge" data-id="L_CF_RJ_0" data-points="W3sieCI6NDcwLjUxNTYyNSwieSI6NjQ1LjUzNjkyMjE1ODg0NjR9LHsieCI6NjQ4LjQ3MjY1NjI1LCJ5Ijo2ODZ9LHsieCI6NjQ4LjQ3MjY1NjI1LCJ5Ijo3NjJ9LHsieCI6NjQ4LjQ3MjY1NjI1LCJ5Ijo4Mzh9LHsieCI6NzI3LjIwNjA1NDY4NzUsInkiOjg3NX1d" marker-end="url(#my-svg_flowchart-v2-pointEnd)"/><path d="M1098.91,62L1115.208,68.167C1131.507,74.333,1164.103,86.667,1204.151,99C1244.199,111.333,1291.699,123.667,1315.449,133.333C1339.199,143,1339.199,150,1339.199,153.5L1339.199,157" id="L_P_EE_0" class="edge-thickness-normal edge-pattern-solid edge-thickness-normal edge-pattern-solid flowchart-link" style=";" data-edge="true" data-et="edge" data-id="L_P_EE_0" data-points="W3sieCI6MTA5OC45MTAyNzgzMjAzMTI1LCJ5Ijo2Mn0seyJ4IjoxMTk2LjY5OTIxODc1LCJ5Ijo5OX0seyJ4IjoxMzM5LjE5OTIxODc1LCJ5IjoxMzZ9LHsieCI6MTMzOS4xOTkyMTg3NSwieSI6MTYxfV0=" marker-end="url(#my-svg_flowchart-v2-pointEnd)"/><path d="M1339.199,239L1339.199,243.167C1339.199,247.333,1339.199,255.667,1339.199,264C1339.199,272.333,1339.199,280.667,1339.199,290.333C1339.199,300,1339.199,311,1339.199,316.5L1339.199,322" id="L_EE_END2_0" class="edge-thickness-normal edge-pattern-solid edge-thickness-normal edge-pattern-solid flowchart-link" style=";" data-edge="true" data-et="edge" data-id="L_EE_END2_0" data-points="W3sieCI6MTMzOS4xOTkyMTg3NSwieSI6MjM5fSx7IngiOjEzMzkuMTk5MjE4NzUsInkiOjI2NH0seyJ4IjoxMzM5LjE5OTIxODc1LCJ5IjoyODl9LHsieCI6MTMzOS4xOTkyMTg3NSwieSI6MzI2fV0=" marker-end="url(#my-svg_flowchart-v2-pointEnd)"/></g><g class="edgeLabels"><g class="edgeLabel"><g class="label" data-id="L_CD_CDT_0" transform="translate(0, 0)"><foreignObject width="0" height="0"><div xmlns="http://www.w3.org/1999/xhtml" class="labelBkg" style="display: table-cell; white-space: nowrap; line-height: 1.5; max-width: 200px; text-align: center;"><span class="edgeLabel"></span></div></foreignObject></g></g><g class="edgeLabel"><g class="label" data-id="L_CD_CDF_0" transform="translate(0, 0)"><foreignObject width="0" height="0"><div xmlns="http://www.w3.org/1999/xhtml" class="labelBkg" style="display: table-cell; white-space: nowrap; line-height: 1.5; max-width: 200px; text-align: center;"><span class="edgeLabel"></span></div></foreignObject></g></g><g class="edgeLabel"><g class="label" data-id="L_CDT_AD_0" transform="translate(0, 0)"><foreignObject width="0" height="0"><div xmlns="http://www.w3.org/1999/xhtml" class="labelBkg" style="display: table-cell; white-space: nowrap; line-height: 1.5; max-width: 200px; text-align: center;"><span class="edgeLabel"></span></div></foreignObject></g></g><g class="edgeLabel"><g class="label" data-id="L_P_AD_0" transform="translate(0, 0)"><foreignObject width="0" height="0"><div xmlns="http://www.w3.org/1999/xhtml" class="labelBkg" style="display: table-cell; white-space: nowrap; line-height: 1.5; max-width: 200px; text-align: center;"><span class="edgeLabel"></span></div></foreignObject></g></g><g class="edgeLabel"><g class="label" data-id="L_P_CD_0" transform="translate(0, 0)"><foreignObject width="0" height="0"><div xmlns="http://www.w3.org/1999/xhtml" class="labelBkg" style="display: table-cell; white-space: nowrap; line-height: 1.5; max-width: 200px; text-align: center;"><span class="edgeLabel"></span></div></foreignObject></g></g><g class="edgeLabel"><g class="label" data-id="L_P_RJ_0" transform="translate(0, 0)"><foreignObject width="0" height="0"><div xmlns="http://www.w3.org/1999/xhtml" class="labelBkg" style="display: table-cell; white-space: nowrap; line-height: 1.5; max-width: 200px; text-align: center;"><span class="edgeLabel"></span></div></foreignObject></g></g><g class="edgeLabel" transform="translate(628.6484375, 558)"><g class="label" data-id="L_AD_CF_0" transform="translate(-32, -12)"><foreignObject width="64" height="24"><div xmlns="http://www.w3.org/1999/xhtml" class="labelBkg" style="display: table-cell; white-space: nowrap; line-height: 1.5; max-width: 200px; text-align: center;"><span class="edgeLabel"><p>考生确认</p></span></div></foreignObject></g></g><g class="edgeLabel"><g class="label" data-id="L_CF_MR_0" transform="translate(0, 0)"><foreignObject width="0" height="0"><div xmlns="http://www.w3.org/1999/xhtml" class="labelBkg" style="display: table-cell; white-space: nowrap; line-height: 1.5; max-width: 200px; text-align: center;"><span class="edgeLabel"></span></div></foreignObject></g></g><g class="edgeLabel"><g class="label" data-id="L_MR_CK_0" transform="translate(0, 0)"><foreignObject width="0" height="0"><div xmlns="http://www.w3.org/1999/xhtml" class="labelBkg" style="display: table-cell; white-space: nowrap; line-height: 1.5; max-width: 200px; text-align: center;"><span class="edgeLabel"></span></div></foreignObject></g></g><g class="edgeLabel"><g class="label" data-id="L_CK_END1_0" transform="translate(0, 0)"><foreignObject width="0" height="0"><div xmlns="http://www.w3.org/1999/xhtml" class="labelBkg" style="display: table-cell; white-space: nowrap; line-height: 1.5; max-width: 200px; text-align: center;"><span class="edgeLabel"></span></div></foreignObject></g></g><g class="edgeLabel" transform="translate(1114.19921875, 494)"><g class="label" data-id="L_RJ_P_0" transform="translate(-40, -12)"><foreignObject width="80" height="24"><div xmlns="http://www.w3.org/1999/xhtml" class="labelBkg" style="display: table-cell; white-space: nowrap; line-height: 1.5; max-width: 200px; text-align: center;"><span class="edgeLabel"><p>可重新推送</p></span></div></foreignObject></g></g><g class="edgeLabel" transform="translate(700.9453125, 686)"><g class="label" data-id="L_AD_RJ_0" transform="translate(-32, -12)"><foreignObject width="64" height="24"><div xmlns="http://www.w3.org/1999/xhtml" class="labelBkg" style="display: table-cell; white-space: nowrap; line-height: 1.5; max-width: 200px; text-align: center;"><span class="edgeLabel"><p>考生拒绝</p></span></div></foreignObject></g></g><g class="edgeLabel" transform="translate(1067.09176, 580.09252)"><g class="label" data-id="L_AD_INV_0" transform="translate(-32, -12)"><foreignObject width="64" height="24"><div xmlns="http://www.w3.org/1999/xhtml" class="labelBkg" style="display: table-cell; white-space: nowrap; line-height: 1.5; max-width: 200px; text-align: center;"><span class="edgeLabel"><p>录取超时</p></span></div></foreignObject></g></g><g class="edgeLabel" transform="translate(1504.19921875, 353)"><g class="label" data-id="L_INV_P_0" transform="translate(-40, -12)"><foreignObject width="80" height="24"><div xmlns="http://www.w3.org/1999/xhtml" class="labelBkg" style="display: table-cell; white-space: nowrap; line-height: 1.5; max-width: 200px; text-align: center;"><span class="edgeLabel"><p>可重新推送</p></span></div></foreignObject></g></g><g class="edgeLabel" transform="translate(612.47265625, 838)"><g class="label" data-id="L_MR_RJ_0" transform="translate(-16, -12)"><foreignObject width="32" height="24"><div xmlns="http://www.w3.org/1999/xhtml" class="labelBkg" style="display: table-cell; white-space: nowrap; line-height: 1.5; max-width: 200px; text-align: center;"><span class="edgeLabel"><p>放弃</p></span></div></foreignObject></g></g><g class="edgeLabel" transform="translate(648.47265625, 762)"><g class="label" data-id="L_CF_RJ_0" transform="translate(-32, -12)"><foreignObject width="64" height="24"><div xmlns="http://www.w3.org/1999/xhtml" class="labelBkg" style="display: table-cell; white-space: nowrap; line-height: 1.5; max-width: 200px; text-align: center;"><span class="edgeLabel"><p>考生放弃</p></span></div></foreignObject></g></g><g class="edgeLabel" transform="translate(1196.69921875, 99)"><g class="label" data-id="L_P_EE_0" transform="translate(-40, -12)"><foreignObject width="80" height="24"><div xmlns="http://www.w3.org/1999/xhtml" class="labelBkg" style="display: table-cell; white-space: nowrap; line-height: 1.5; max-width: 200px; text-align: center;"><span class="edgeLabel"><p>被他校录取</p></span></div></foreignObject></g></g><g class="edgeLabel"><g class="label" data-id="L_EE_END2_0" transform="translate(0, 0)"><foreignObject width="0" height="0"><div xmlns="http://www.w3.org/1999/xhtml" class="labelBkg" style="display: table-cell; white-space: nowrap; line-height: 1.5; max-width: 200px; text-align: center;"><span class="edgeLabel"></span></div></foreignObject></g></g></g><g class="nodes"><g class="node default" id="flowchart-P-0" transform="translate(1027.55078125, 35)"><rect class="basic label-container" style="" x="-93.7890625" y="-27" width="187.578125" height="54"/><g class="label" style="" transform="translate(-63.7890625, -12)"><rect/><foreignObject width="127.578125" height="24"><div xmlns="http://www.w3.org/1999/xhtml" style="display: table-cell; white-space: nowrap; line-height: 1.5; max-width: 200px; text-align: center;"><span class="nodeLabel"><p>PENDING (待处理)</p></span></div></foreignObject></g></g><g class="node default" id="flowchart-AD-1" transform="translate(691.12109375, 494)"><rect class="basic label-container" style="" x="-106.296875" y="-27" width="212.59375" height="54"/><g class="label" style="" transform="translate(-76.296875, -12)"><rect/><foreignObject width="152.59375" height="24"><div xmlns="http://www.w3.org/1999/xhtml" style="display: table-cell; white-space: nowrap; line-height: 1.5; max-width: 200px; text-align: center;"><span class="nodeLabel"><p>ADMITTED (直接录取)</p></span></div></foreignObject></g></g><g class="node default" id="flowchart-CD-2" transform="translate(862.66015625, 200)"><rect class="basic label-container" style="" x="-126.5390625" y="-27" width="253.078125" height="54"/><g class="label" style="" transform="translate(-96.5390625, -12)"><rect/><foreignObject width="193.078125" height="24"><div xmlns="http://www.w3.org/1999/xhtml" style="display: table-cell; white-space: nowrap; line-height: 1.5; max-width: 200px; text-align: center;"><span class="nodeLabel"><p>CONDITIONAL (有条件录取)</p></span></div></foreignObject></g></g><g class="node default" id="flowchart-RJ-3" transform="translate(784.66015625, 902)"><rect class="basic label-container" style="" x="-89.9453125" y="-27" width="179.890625" height="54"/><g class="label" style="" transform="translate(-59.9453125, -12)"><rect/><foreignObject width="119.890625" height="24"><div xmlns="http://www.w3.org/1999/xhtml" style="display: table-cell; white-space: nowrap; line-height: 1.5; max-width: 200px; text-align: center;"><span class="nodeLabel"><p>REJECTED (拒绝)</p></span></div></foreignObject></g></g><g class="node default" id="flowchart-CDT-5" transform="translate(105, 353)"><rect class="basic label-container" style="" x="-62" y="-27" width="124" height="54"/><g class="label" style="" transform="translate(-32, -12)"><rect/><foreignObject width="64" height="24"><div xmlns="http://www.w3.org/1999/xhtml" style="display: table-cell; white-space: nowrap; line-height: 1.5; max-width: 200px; text-align: center;"><span class="nodeLabel"><p>满足条件</p></span></div></foreignObject></g></g><g class="node default" id="flowchart-CDF-7" transform="translate(347, 353)"><rect class="basic label-container" style="" x="-130" y="-39" width="260" height="78"/><g class="label" style="" transform="translate(-100, -24)"><rect/><foreignObject width="200" height="48"><div xmlns="http://www.w3.org/1999/xhtml" style="display: table; white-space: break-spaces; line-height: 1.5; max-width: 200px; text-align: center; width: 200px;"><span class="nodeLabel"><p>INVALIDATED (条件到期失效)</p></span></div></foreignObject></g></g><g class="node default" id="flowchart-CF-17" transform="translate(367, 622)"><rect class="basic label-container" style="" x="-103.515625" y="-27" width="207.03125" height="54"/><g class="label" style="" transform="translate(-73.515625, -12)"><rect/><foreignObject width="147.03125" height="24"><div xmlns="http://www.w3.org/1999/xhtml" style="display: table-cell; white-space: nowrap; line-height: 1.5; max-width: 200px; text-align: center;"><span class="nodeLabel"><p>CONFIRMED (已确认)</p></span></div></foreignObject></g></g><g class="node default" id="flowchart-MR-19" transform="translate(367, 762)"><rect class="basic label-container" style="" x="-130" y="-39" width="260" height="78"/><g class="label" style="" transform="translate(-100, -24)"><rect/><foreignObject width="200" height="48"><div xmlns="http://www.w3.org/1999/xhtml" style="display: table; white-space: break-spaces; line-height: 1.5; max-width: 200px; text-align: center; width: 200px;"><span class="nodeLabel"><p>MATERIAL_RECEIVED (材料已收)</p></span></div></foreignObject></g></g><g class="node default" id="flowchart-CK-21" transform="translate(367, 902)"><rect class="basic label-container" style="" x="-106.703125" y="-27" width="213.40625" height="54"/><g class="label" style="" transform="translate(-76.703125, -12)"><rect/><foreignObject width="153.40625" height="24"><div xmlns="http://www.w3.org/1999/xhtml" style="display: table-cell; white-space: nowrap; line-height: 1.5; max-width: 200px; text-align: center;"><span class="nodeLabel"><p>CHECKED_IN (已报到)</p></span></div></foreignObject></g></g><g class="node default" id="flowchart-END1-23" transform="translate(367, 1031)"><rect class="basic label-container" style="" rx="5" ry="5" x="-29.296875" y="-27" width="58.59375" height="54"/><g class="label" style="" transform="translate(-14.296875, -12)"><rect/><foreignObject width="28.59375" height="24"><div xmlns="http://www.w3.org/1999/xhtml" style="display: table-cell; white-space: nowrap; line-height: 1.5; max-width: 200px; text-align: center;"><span class="nodeLabel"><p>END</p></span></div></foreignObject></g></g><g class="node default" id="flowchart-INV-29" transform="translate(1504.19921875, 622)"><rect class="basic label-container" style="" x="-115.1796875" y="-27" width="230.359375" height="54"/><g class="label" style="" transform="translate(-85.1796875, -12)"><rect/><foreignObject width="170.359375" height="24"><div xmlns="http://www.w3.org/1999/xhtml" style="display: table-cell; white-space: nowrap; line-height: 1.5; max-width: 200px; text-align: center;"><span class="nodeLabel"><p>INVALIDATED (录取失效)</p></span></div></foreignObject></g></g><g class="node default" id="flowchart-EE-37" transform="translate(1339.19921875, 200)"><rect class="basic label-container" style="" x="-130" y="-39" width="260" height="78"/><g class="label" style="" transform="translate(-100, -24)"><rect/><foreignObject width="200" height="48"><div xmlns="http://www.w3.org/1999/xhtml" style="display: table; white-space: break-spaces; line-height: 1.5; max-width: 200px; text-align: center; width: 200px;"><span class="nodeLabel"><p>ENROLLED_ELSEWHERE (已被他校录取)</p></span></div></foreignObject></g></g><g class="node default" id="flowchart-END2-39" transform="translate(1339.19921875, 353)"><rect class="basic label-container" style="" rx="5" ry="5" x="-29.296875" y="-27" width="58.59375" height="54"/><g class="label" style="" transform="translate(-14.296875, -12)"><rect/><foreignObject width="28.59375" height="24"><div xmlns="http://www.w3.org/1999/xhtml" style="display: table-cell; white-space: nowrap; line-height: 1.5; max-width: 200px; text-align: center;"><span class="nodeLabel"><p>END</p></span></div></foreignObject></g></g></g></g></g></svg>